# xmcd
#
# Track frame offsets: 
#        150
#        15780
#        35701
#        55670
#        76346
#        95079
#        114379
#        134211
#        154950
#        174339
#        194399
#        216989
#        236705
#
# Disc length: 3428 seconds
#
# Revision: 0
# Processed by: cddbd v1.4PL0 Copyright (c) Steve Scherf et al.
# Submitted via: ExactAudioCopy v0.90b3
#
DISCID=b10d620d
DTITLE=太极 - 太极十五年精选（上）
DYEAR=2002
DGENRE=Pop
TTITLE0=红色跑车
TTITLE1=曙光
TTITLE2=想
TTITLE3=作弄
TTITLE4=他
TTITLE5=唱唱笨小孩
TTITLE6=一刻印记
TTITLE7=迷途
TTITLE8=痛
TTITLE9=每一句说话
TTITLE10=Crystal
TTITLE11=悬崖
TTITLE12=缘
EXTD=
EXTT0=
EXTT1=
EXTT2=
EXTT3=
EXTT4=
EXTT5=
EXTT6=
EXTT7=
EXTT8=
EXTT9=
EXTT10=
EXTT11=
EXTT12=
PLAYORDER=
